<?xml version="1.0" standalone="no"?>
<!DOCTYPE svg PUBLIC "-//W3C//DTD SVG 20010904//EN"
 "http://www.w3.org/TR/2001/REC-SVG-20010904/DTD/svg10.dtd">
<svg version="1.0" xmlns="http://www.w3.org/2000/svg"
 width="300.000000pt" height="300.000000pt" viewBox="0 0 300.000000 300.000000"
 preserveAspectRatio="xMidYMid meet">
<metadata>
Created by potrace 1.11, written by Peter Selinger 2001-2013
</metadata>
<g transform="translate(0.000000,300.000000) scale(0.100000,-0.100000)"
fill="#000000" stroke="none">
<path d="M379 2985 c-177 -48 -310 -182 -363 -364 -14 -48 -16 -179 -16 -1115
1 -712 4 -1077 11 -1111 39 -181 194 -338 377 -381 46 -11 261 -13 1132 -11
591 1 1084 5 1095 9 123 41 184 77 252 152 54 59 98 139 118 217 21 77 22
2144 1 2231 -42 182 -192 331 -376 374 -79 19 -2163 18 -2231 -1z"/>
</g>
</svg>
